<svg width="32" height="32" viewBox="0 0 32 32" fill="none" xmlns="http://www.w3.org/2000/svg">
<g clip-path="url(#clip0_171_9206)">
<path d="M28 24H8C7.64638 24 7.30724 24.1405 7.05719 24.3905C6.80714 24.6406 6.66667 24.9797 6.66667 25.3333C6.66667 25.687 6.80714 26.0261 7.05719 26.2761C7.30724 26.5262 7.64638 26.6667 8 26.6667H28V29.3333H8C6.93913 29.3333 5.92172 28.9119 5.17157 28.1618C4.42143 27.4116 4 26.3942 4 25.3333V5.33333C4 4.62609 4.28095 3.94781 4.78105 3.44772C5.28115 2.94762 5.95942 2.66667 6.66667 2.66667H28V24ZM6.66667 21.4C6.88267 21.356 7.10533 21.3333 7.33333 21.3333H25.3333V5.33333H6.66667V21.4ZM21.3333 12H10.6667V9.33333H21.3333V12Z" fill="#03053D"/>
</g>
<defs>
<clipPath id="clip0_171_9206">
<rect width="32" height="32" fill="white"/>
</clipPath>
</defs>
</svg>
